G04 #@! TF.FileFunction,Soldermask,Top*
%FSLAX46Y46*%
G04 Gerber Fmt 4.6, Leading zero omitted, Abs format (unit mm)*
G04 Created by KiCad (PCBNEW 4.0.7) date 10/01/18 20:06:01*
%MOMM*%
%LPD*%
G01*
G04 APERTURE LIST*
%ADD10C,0.100000*%
%ADD11R,1.900000X0.680000*%
%ADD12R,0.680000X1.900000*%
%ADD13R,1.200000X1.150000*%
%ADD14R,1.150000X1.200000*%
%ADD15R,1.400000X1.650000*%
%ADD16R,1.924000X6.877000*%
%ADD17R,1.850000X2.400000*%
%ADD18R,1.200000X1.900000*%
%ADD19C,1.390600*%
%ADD20C,1.187400*%
%ADD21R,0.900000X1.300000*%
%ADD22R,1.620000X1.050000*%
%ADD23R,2.100000X2.100000*%
%ADD24O,2.100000X2.100000*%
G04 APERTURE END LIST*
D10*
D11*
X92100000Y-74000000D03*
X92100000Y-74500000D03*
X92100000Y-75000000D03*
X92100000Y-75500000D03*
X92100000Y-76000000D03*
X92100000Y-76500000D03*
X92100000Y-77000000D03*
X92100000Y-77500000D03*
X92100000Y-78000000D03*
X92100000Y-78500000D03*
X92100000Y-79000000D03*
X92100000Y-79500000D03*
X92100000Y-80000000D03*
X92100000Y-80500000D03*
X92100000Y-81000000D03*
X92100000Y-81500000D03*
X92100000Y-82000000D03*
X92100000Y-82500000D03*
X92100000Y-83000000D03*
X92100000Y-83500000D03*
X92100000Y-84000000D03*
X92100000Y-84500000D03*
X92100000Y-85000000D03*
X92100000Y-85500000D03*
X92100000Y-86000000D03*
D12*
X94000000Y-87900000D03*
X94500000Y-87900000D03*
X95000000Y-87900000D03*
X95500000Y-87900000D03*
X96000000Y-87900000D03*
X96500000Y-87900000D03*
X97000000Y-87900000D03*
X97500000Y-87900000D03*
X98000000Y-87900000D03*
X98500000Y-87900000D03*
X99000000Y-87900000D03*
X99500000Y-87900000D03*
X100000000Y-87900000D03*
X100500000Y-87900000D03*
X101000000Y-87900000D03*
X101500000Y-87900000D03*
X102000000Y-87900000D03*
X102500000Y-87900000D03*
X103000000Y-87900000D03*
X103500000Y-87900000D03*
X104000000Y-87900000D03*
X104500000Y-87900000D03*
X105000000Y-87900000D03*
X105500000Y-87900000D03*
X106000000Y-87900000D03*
D11*
X107900000Y-86000000D03*
X107900000Y-85500000D03*
X107900000Y-85000000D03*
X107900000Y-84500000D03*
X107900000Y-84000000D03*
X107900000Y-83500000D03*
X107900000Y-83000000D03*
X107900000Y-82500000D03*
X107900000Y-82000000D03*
X107900000Y-81500000D03*
X107900000Y-81000000D03*
X107900000Y-80500000D03*
X107900000Y-80000000D03*
X107900000Y-79500000D03*
X107900000Y-79000000D03*
X107900000Y-78500000D03*
X107900000Y-78000000D03*
X107900000Y-77500000D03*
X107900000Y-77000000D03*
X107900000Y-76500000D03*
X107900000Y-76000000D03*
X107900000Y-75500000D03*
X107900000Y-75000000D03*
X107900000Y-74500000D03*
X107900000Y-74000000D03*
D12*
X106000000Y-72100000D03*
X105500000Y-72100000D03*
X105000000Y-72100000D03*
X104500000Y-72100000D03*
X104000000Y-72100000D03*
X103500000Y-72100000D03*
X103000000Y-72100000D03*
X102500000Y-72100000D03*
X102000000Y-72100000D03*
X101500000Y-72100000D03*
X101000000Y-72100000D03*
X100500000Y-72100000D03*
X100000000Y-72100000D03*
X99500000Y-72100000D03*
X99000000Y-72100000D03*
X98500000Y-72100000D03*
X98000000Y-72100000D03*
X97500000Y-72100000D03*
X97000000Y-72100000D03*
X96500000Y-72100000D03*
X96000000Y-72100000D03*
X95500000Y-72100000D03*
X95000000Y-72100000D03*
X94500000Y-72100000D03*
X94000000Y-72100000D03*
D13*
X111750000Y-88200000D03*
X110250000Y-88200000D03*
X111550000Y-75400000D03*
X110050000Y-75400000D03*
X88450000Y-84000000D03*
X89950000Y-84000000D03*
D14*
X95000000Y-91550000D03*
X95000000Y-90050000D03*
D13*
X88450000Y-78800000D03*
X89950000Y-78800000D03*
D15*
X83000000Y-78000000D03*
X85000000Y-78000000D03*
D14*
X94000000Y-68450000D03*
X94000000Y-69950000D03*
D13*
X88450000Y-76400000D03*
X89950000Y-76400000D03*
X111550000Y-73600000D03*
X110050000Y-73600000D03*
X111750000Y-86800000D03*
X110250000Y-86800000D03*
D15*
X85000000Y-72400000D03*
X83000000Y-72400000D03*
D16*
X113970000Y-96190000D03*
X111430000Y-96190000D03*
X108890000Y-96190000D03*
X106350000Y-96190000D03*
X103810000Y-96190000D03*
X101270000Y-96190000D03*
X98730000Y-96190000D03*
X96190000Y-96190000D03*
X93650000Y-96190000D03*
X91110000Y-96190000D03*
X88570000Y-96190000D03*
X86030000Y-96190000D03*
D17*
X116675000Y-55900000D03*
X102925000Y-55900000D03*
X102925000Y-64200000D03*
X116675000Y-64200000D03*
D18*
X114300000Y-58500000D03*
X113200000Y-58500000D03*
X112100000Y-58500000D03*
X111000000Y-58500000D03*
X109900000Y-58500000D03*
X108800000Y-58500000D03*
X107700000Y-58500000D03*
X106600000Y-58500000D03*
D19*
X113384000Y-72060000D03*
X115416000Y-72060000D03*
X114400000Y-77140000D03*
D20*
X115035000Y-75870000D03*
X113765000Y-75870000D03*
X115035000Y-74600000D03*
X113765000Y-74600000D03*
X115035000Y-73330000D03*
X113765000Y-73330000D03*
D21*
X88450000Y-80400000D03*
X89950000Y-80400000D03*
D22*
X82690000Y-74250000D03*
X82690000Y-75200000D03*
X82690000Y-76150000D03*
X85310000Y-76150000D03*
X85310000Y-74250000D03*
D13*
X88450000Y-82600000D03*
X89950000Y-82600000D03*
D23*
X84400000Y-66200000D03*
D24*
X86940000Y-66200000D03*
X89480000Y-66200000D03*
M02*
