M48
INCH,TZ
T1C0.016
T2C0.039
T3C0.039
%
G90
G05
T1
X33858Y-36220
X34252Y-36299
X34803Y-33543
X34882Y-35827
X34882Y-36220
X35433Y-32126
X35748Y-32205
X35906Y-36063
X36850Y-30787
X36929Y-35984
X37008Y-33307
X37323Y-28976
X37638Y-32992
X37953Y-36063
X38189Y-28976
X38268Y-32362
X38583Y-29528
X38583Y-36378
X38898Y-29606
X38898Y-32677
X39213Y-29685
X39370Y-36535
X39528Y-29764
X39606Y-36220
X39843Y-29843
X39921Y-32126
X40157Y-29921
X40236Y-33386
X40472Y-30000
X40472Y-33701
X40787Y-30079
X40866Y-33701
X41024Y-34016
X41811Y-31260
X41811Y-31654
X41969Y-29449
X42835Y-23622
X42992Y-27874
X42992Y-28740
X43071Y-31260
X43071Y-31654
X43386Y-33150
X43701Y-23622
X43701Y-33780
X43858Y-35197
X44094Y-33543
X44409Y-28976
X44409Y-29685
X44409Y-34173
X44409Y-34724
X44567Y-23622
X44882Y-36063
T2
X33228Y-26063
X34228Y-26063
X35228Y-26063
T3
X44639Y-28370
X45039Y-30370
X45439Y-28370
T0
M30
